<?xml version="1.0" encoding="UTF-8" standalone="no"?>
<svg
   xmlns:dc="http://purl.org/dc/elements/1.1/"
   xmlns:cc="http://creativecommons.org/ns#"
   xmlns:rdf="http://www.w3.org/1999/02/22-rdf-syntax-ns#"
   xmlns:svg="http://www.w3.org/2000/svg"
   xmlns="http://www.w3.org/2000/svg"
   xmlns:sodipodi="http://sodipodi.sourceforge.net/DTD/sodipodi-0.dtd"
   xmlns:inkscape="http://www.inkscape.org/namespaces/inkscape"
   width="200"
   height="80"
   viewBox="0 0 52.916668 21.166667"
   version="1.1"
   id="svg8"
   inkscape:version="1.0.1 (3bc2e813f5, 2020-09-07)"
   sodipodi:docname="login.svg">
  <defs
     id="defs2">
    <inkscape:path-effect
       effect="bspline"
       id="path-effect858"
       is_visible="true"
       lpeversion="1"
       weight="33.333333"
       steps="2"
       helper_size="0"
       apply_no_weight="true"
       apply_with_weight="true"
       only_selected="false" />
    <inkscape:path-effect
       effect="bspline"
       id="path-effect854"
       is_visible="true"
       lpeversion="1"
       weight="33.333333"
       steps="2"
       helper_size="0"
       apply_no_weight="true"
       apply_with_weight="true"
       only_selected="false" />
    <inkscape:path-effect
       effect="bspline"
       id="path-effect850"
       is_visible="true"
       lpeversion="1"
       weight="33.333333"
       steps="2"
       helper_size="0"
       apply_no_weight="true"
       apply_with_weight="true"
       only_selected="false" />
    <inkscape:path-effect
       effect="bspline"
       id="path-effect846"
       is_visible="true"
       lpeversion="1"
       weight="33.333333"
       steps="2"
       helper_size="0"
       apply_no_weight="true"
       apply_with_weight="true"
       only_selected="false" />
    <inkscape:path-effect
       effect="bspline"
       id="path-effect842"
       is_visible="true"
       lpeversion="1"
       weight="33.333333"
       steps="2"
       helper_size="0"
       apply_no_weight="true"
       apply_with_weight="true"
       only_selected="false" />
    <inkscape:path-effect
       effect="bspline"
       id="path-effect869"
       is_visible="true"
       lpeversion="1"
       weight="33.333333"
       steps="2"
       helper_size="0"
       apply_no_weight="true"
       apply_with_weight="true"
       only_selected="false" />
    <inkscape:path-effect
       effect="bspline"
       id="path-effect865"
       is_visible="true"
       lpeversion="1"
       weight="33.333333"
       steps="2"
       helper_size="0"
       apply_no_weight="true"
       apply_with_weight="true"
       only_selected="false" />
    <inkscape:path-effect
       effect="bspline"
       id="path-effect861"
       is_visible="true"
       lpeversion="1"
       weight="33.333333"
       steps="2"
       helper_size="0"
       apply_no_weight="true"
       apply_with_weight="true"
       only_selected="false" />
    <inkscape:path-effect
       effect="bspline"
       id="path-effect857"
       is_visible="true"
       lpeversion="1"
       weight="33.333333"
       steps="2"
       helper_size="0"
       apply_no_weight="true"
       apply_with_weight="true"
       only_selected="false" />
    <inkscape:path-effect
       effect="bspline"
       id="path-effect853"
       is_visible="true"
       lpeversion="1"
       weight="33.333333"
       steps="2"
       helper_size="0"
       apply_no_weight="true"
       apply_with_weight="true"
       only_selected="false" />
    <inkscape:path-effect
       effect="bspline"
       id="path-effect839"
       is_visible="true"
       lpeversion="1"
       weight="33.333333"
       steps="2"
       helper_size="0"
       apply_no_weight="true"
       apply_with_weight="true"
       only_selected="false" />
  </defs>
  <sodipodi:namedview
     id="base"
     pagecolor="#ffffff"
     bordercolor="#666666"
     borderopacity="1.0"
     inkscape:pageopacity="0.0"
     inkscape:pageshadow="2"
     inkscape:zoom="7.919596"
     inkscape:cx="34.468042"
     inkscape:cy="56.066942"
     inkscape:document-units="mm"
     inkscape:current-layer="layer1"
     inkscape:document-rotation="0"
     showgrid="true"
     inkscape:snap-page="true"
     units="px"
     width="8in"
     inkscape:window-width="3840"
     inkscape:window-height="2066"
     inkscape:window-x="-11"
     inkscape:window-y="-11"
     inkscape:window-maximized="1">
    <inkscape:grid
       type="xygrid"
       id="grid10" />
  </sodipodi:namedview>
  <metadata
     id="metadata5">
    <rdf:RDF>
      <cc:Work
         rdf:about="">
        <dc:format>image/svg+xml</dc:format>
        <dc:type
           rdf:resource="http://purl.org/dc/dcmitype/StillImage" />
        <dc:title />
      </cc:Work>
    </rdf:RDF>
  </metadata>
  <g
     inkscape:label="Warstwa 1"
     inkscape:groupmode="layer"
     id="layer1">
    <text
       xml:space="preserve"
       style="font-weight:900;font-size:8.20795px;line-height:0.85;font-family:Arial;-inkscape-font-specification:'Arial Heavy';stroke-width:0.279815"
       x="6.4370303"
       y="11.052861"
       id="text883"
       transform="scale(0.76425151,1.3084698)"><tspan
         sodipodi:role="line"
         id="tspan881"
         x="6.4370303"
         y="11.052861"
         style="font-size:8.20795px;stroke-width:0.279815">LOGOWANIE</tspan></text>
    <path
       style="fill:#fafafa;fill-opacity:1;stroke:#d2d2d2;stroke-width:0;stroke-opacity:0.6;stroke-miterlimit:4;stroke-dasharray:none"
       d="M 18.409115,74.309071 C 13.41721,73.991142 10.255417,72.933636 8.517536,71.000694 7.1148917,69.440615 6.358655,67.325384 5.8419038,63.516817 5.6610571,62.183938 5.6301714,59.562651 5.5852609,41.735403 5.5333627,21.134358 5.5800637,18.177013 6.0016484,15.36763 6.5704113,11.577472 7.9793127,8.9660392 10.166276,7.6483931 c 1.56482,-0.9428049 4.253997,-1.6263787 7.444846,-1.8924387 0.989523,-0.082509 30.297667,-0.1290232 84.474008,-0.1340678 72.6238,-0.00676 83.10821,0.015544 84.15833,0.1790511 5.42649,0.8449268 7.2354,3.2645538 7.98485,10.6806513 0.23724,2.34751 0.23,44.250982 -0.008,46.403883 -0.47754,4.319443 -1.30917,6.640431 -2.98922,8.342452 -1.53267,1.552715 -3.63996,2.361097 -7.63928,2.930519 -1.33168,0.189604 -8.1797,0.208316 -82.57997,0.225654 -44.62033,0.01039 -81.791557,-0.02336 -82.602725,-0.07503 z M 45.264048,55.121674 c 3.597019,-0.584252 6.086032,-3.889988 7.013446,-9.314772 0.494553,-2.892827 0.550039,-7.904376 0.119173,-10.76376 -0.18747,-1.244107 -0.674314,-3.192423 -1.012038,-4.050098 -1.565891,-3.976689 -4.032202,-5.921426 -7.509541,-5.921426 -3.83129,0 -6.539988,2.509284 -7.94492,7.360015 -1.102337,3.805972 -1.189328,10.729565 -0.184276,14.666345 0.851875,3.336785 2.333979,5.845351 4.137172,7.002457 1.453415,0.932654 3.51616,1.324136 5.380984,1.021239 z m 20.960665,-0.19377 c 1.744945,-0.452633 3.389312,-1.561439 5.110208,-3.445845 l 0.886706,-0.970956 3.79e-4,-6.218752 4.88e-4,-6.218751 h -4.103745 -4.103745 v 3.030458 3.030457 h 1.704633 1.704632 v 1.379168 1.379169 l -0.662913,0.581387 c -0.9728,0.853164 -1.753352,1.205963 -2.668143,1.205963 -1.79677,0 -3.022719,-1.373227 -3.550895,-3.977476 -0.481803,-2.375609 -0.453554,-7.197072 0.05471,-9.337129 0.653999,-2.753682 2.124055,-4.155644 3.890966,-3.71073 0.963512,0.242615 1.944694,1.490334 2.145615,2.728474 0.03831,0.23608 0.132445,0.452856 0.209188,0.481724 0.127274,0.04788 4.962612,-1.383052 5.084106,-1.504546 0.08038,-0.08037 -0.403466,-2.193465 -0.713387,-3.115601 -0.438378,-1.304346 -1.257634,-2.760245 -1.955393,-3.474934 -1.149811,-1.177709 -2.217663,-1.556642 -4.674906,-1.658918 -2.843389,-0.118347 -4.275873,0.360616 -5.881967,1.966685 -1.511317,1.511292 -2.444857,3.329233 -3.149422,6.133062 -0.570712,2.27116 -0.691491,3.498909 -0.689539,7.009361 0.0014,2.500571 0.05272,3.530143 0.229784,4.608821 1.033999,6.299246 3.337485,9.59104 7.198942,10.287636 0.869526,0.15686 2.994439,0.05491 3.9337,-0.188727 z m 18.789374,0.137573 c 2.212883,-0.423394 4.055094,-1.973304 5.321531,-4.477169 0.546702,-1.080882 1.157692,-3.101571 1.47489,-4.877815 0.263881,-1.477685 0.293036,-2.024616 0.296036,-5.553453 0.0028,-3.232503 -0.03728,-4.155627 -0.229789,-5.299522 -0.914511,-5.434022 -3.250215,-8.791151 -6.678818,-9.599525 -2.427058,-0.572236 -5.009589,0.07763 -6.701127,1.686274 -2.348157,2.233082 -3.530531,5.561433 -3.901252,10.981909 -0.463563,6.777974 0.9883,12.627062 3.820124,15.390041 1.607524,1.568445 4.095783,2.228091 6.598405,1.74926 z M 33.836697,51.079314 V 47.417511 H 29.732952 25.629208 V 36.495237 25.572962 h -2.651651 -2.65165 V 40.15704 54.741117 h 6.755395 6.755395 z m 69.389553,-5.127313 c 0.77784,-4.799291 1.43647,-8.792643 1.46363,-8.874117 0.0271,-0.08147 0.69942,3.859423 1.49392,8.757549 l 1.44454,8.905684 h 2.6153 2.6153 l 0.0759,-0.473509 c 0.0418,-0.26043 0.86909,-6.667007 1.83847,-14.236838 0.96938,-7.56983 1.79109,-13.919586 1.82602,-14.110568 l 0.0635,-0.34724 h -2.55591 -2.5559 l -0.80447,7.292039 c -0.44246,4.010621 -0.83925,7.541435 -0.88177,7.846254 -0.0602,0.431229 -0.35751,-1.179956 -1.33999,-7.260472 l -1.26269,-7.814686 -2.55695,-0.03418 c -1.40632,-0.0188 -2.55913,0.0096 -2.5618,0.06313 -0.0311,0.622573 -2.507726,15.325143 -2.558172,15.18647 -0.0379,-0.104172 -0.416329,-3.428205 -0.840966,-7.38674 -0.424635,-3.958535 -0.802926,-7.353595 -0.840644,-7.544577 l -0.06858,-0.34724 H 95.3197 c -1.383441,0 -2.517077,0.04262 -2.519191,0.0947 -0.007,0.171828 3.68633,28.754231 3.736691,28.918187 0.03821,0.124401 0.635763,0.152744 2.66204,0.126269 l 2.61277,-0.03414 z m 18.75248,8.757549 c 0.003,-0.01736 0.19053,-1.082758 0.41578,-2.367546 l 0.40955,-2.335977 2.93035,-0.0339 c 1.6117,-0.01864 2.93316,-0.01864 2.93658,0 0.003,0.01864 0.19052,1.085085 0.41577,2.369872 l 0.40955,2.335978 2.81927,0.03402 2.81929,0.03402 -0.0572,-0.286563 c -0.0315,-0.157609 -1.47063,-6.721548 -3.19811,-14.586533 l -3.14091,-14.299972 h -2.92533 -2.92533 l -0.0719,0.34724 c -0.0395,0.190982 -1.46714,6.698793 -3.17251,14.461801 -1.70536,7.763008 -3.10065,14.169585 -3.10065,14.236837 0,0.103456 5.41546,0.193826 5.43579,0.09071 z m 19.84861,-7.69265 0.0325,-7.724218 3.07051,7.724218 3.07051,7.724217 h 2.5169 2.5169 V 40.15704 25.572962 h -2.52443 -2.5244 l -0.0325,7.788336 -0.0325,7.788335 -3.09359,-7.787963 -3.09359,-7.787962 -2.49382,-3.78e-4 -2.49381,-3.68e-4 V 40.15704 54.741117 h 2.52441 2.52441 z M 161.9998,40.15704 V 25.572962 h -2.71478 -2.71479 V 40.15704 54.741117 h 2.71479 2.71478 z m 18.05648,11.237946 v -3.34613 h -4.54569 -4.54569 v -2.841054 -2.841054 h 4.10375 4.10374 v -3.030457 -3.030458 h -4.10374 -4.10375 v -2.209709 -2.209708 h 4.41942 4.41942 v -3.156727 -3.156727 h -7.07107 -7.07107 V 40.15704 54.741117 h 7.19734 7.19734 z"
       id="path868"
       transform="scale(0.26458333)" />
    <path
       style="fill:#fafafa;fill-opacity:1;stroke:#d2d2d2;stroke-width:0.334066;stroke-opacity:0.6"
       d="m 82.863825,48.298313 c -1.243986,-0.274935 -2.189924,-1.627054 -2.647968,-3.784991 -0.186213,-0.87729 -0.227816,-1.672807 -0.227816,-4.356282 0,-3.401269 0.06623,-4.026389 0.589194,-5.561612 0.315388,-0.925852 0.767257,-1.6096 1.401483,-2.120659 0.665656,-0.536386 1.680471,-0.610435 2.491875,-0.181828 0.784751,0.414529 1.525082,1.534171 1.870786,2.829288 0.840717,3.149593 0.619135,9.238326 -0.412973,11.347879 -0.68967,1.409636 -1.843639,2.098046 -3.064581,1.828205 z"
       id="path870"
       transform="scale(0.26458333)" />
    <path
       style="fill:#fafafa;fill-opacity:1;stroke:#d2d2d2;stroke-width:0.334066;stroke-opacity:0.6"
       d="m 43.433146,48.305259 c -0.630453,-0.11894 -0.917391,-0.301672 -1.483366,-0.944654 -0.573349,-0.651359 -0.940466,-1.52816 -1.259307,-3.007654 -0.322747,-1.497621 -0.319292,-6.723665 0.0055,-8.362791 0.509171,-2.569403 1.631965,-3.977475 3.171633,-3.977475 1.513597,0 2.641448,1.373945 3.166141,3.856987 0.453313,2.145237 0.371454,7.139188 -0.151924,9.26844 -0.561379,2.283852 -1.851347,3.468506 -3.448705,3.167147 z"
       id="path872"
       transform="scale(0.26458333)" />
    <path
       style="fill:#fafafa;fill-opacity:1;stroke:#d2d2d2;stroke-width:0.334066;stroke-opacity:0.6"
       d="m 124.03137,43.15593 c 0.0374,-0.190982 0.42437,-2.350183 0.85994,-4.798225 0.43556,-2.448041 0.8257,-4.450984 0.86697,-4.450984 0.0413,0 0.43255,2.002943 0.86952,4.450984 0.43697,2.448042 0.82498,4.607243 0.86224,4.798225 l 0.0678,0.34724 h -1.79721 -1.79721 z"
       id="path874"
       transform="scale(0.26458333)" />
  </g>
</svg>
